<?xml version="1.0" encoding="UTF-8" standalone="no"?>
<!-- Created with Inkscape (http://www.inkscape.org/) -->

<svg
   sodipodi:docname="polygon.svg"
   id="svg5"
   version="1.1"
   viewBox="0 0 165.25308 85.509308"
   height="85.509308mm"
   width="165.25308mm"
   inkscape:version="1.2.1 (1:1.2.1+202210291243+9c6d41e410)"
   xmlns:inkscape="http://www.inkscape.org/namespaces/inkscape"
   xmlns:sodipodi="http://sodipodi.sourceforge.net/DTD/sodipodi-0.dtd"
   xmlns="http://www.w3.org/2000/svg"
   xmlns:svg="http://www.w3.org/2000/svg">
  <sodipodi:namedview
     id="namedview7"
     pagecolor="#ffffff"
     bordercolor="#666666"
     borderopacity="1.0"
     inkscape:showpageshadow="2"
     inkscape:pageopacity="0.0"
     inkscape:pagecheckerboard="0"
     inkscape:deskcolor="#d1d1d1"
     inkscape:document-units="mm"
     showgrid="false"
     inkscape:zoom="0.84096521"
     inkscape:cx="200.95956"
     inkscape:cy="55.293607"
     inkscape:window-width="1920"
     inkscape:window-height="1145"
     inkscape:window-x="1920"
     inkscape:window-y="0"
     inkscape:window-maximized="1"
     inkscape:current-layer="layer1" />
  <defs
     id="defs2">
    <clipPath
       id="clipPath2258">
      <path
         d="M 5,1 H 9 V 5.785156 H 5 Z m 0,0"
         id="path1363" />
    </clipPath>
    <clipPath
       id="clipPath3378">
      <path
         d="M 5,1 H 9 V 5.785156 H 5 Z m 0,0"
         id="path3134" />
    </clipPath>
    <clipPath
       id="clipPath8637">
      <path
         d="M 5,1 H 9 V 5.785156 H 5 Z m 0,0"
         id="path1705" />
    </clipPath>
    <clipPath
       id="clipPath8548">
      <path
         d="M 5,1 H 9 V 5.785156 H 5 Z m 0,0"
         id="path951" />
    </clipPath>
    <clipPath
       id="clipPath1352">
      <path
         d="M 5,1 H 9 V 5.785156 H 5 Z m 0,0"
         id="path7106" />
    </clipPath>
    <clipPath
       id="clipPath8863">
      <path
         d="M 5,1 H 9 V 5.785156 H 5 Z m 0,0"
         id="path225" />
    </clipPath>
    <clipPath
       id="clipPath1933">
      <path
         d="M 5,1 H 9 V 5.785156 H 5 Z m 0,0"
         id="path7635" />
    </clipPath>
    <clipPath
       id="clipPath3637">
      <path
         d="M 5,1 H 9 V 5.785156 H 5 Z m 0,0"
         id="path5631" />
    </clipPath>
    <clipPath
       id="clipPath7638">
      <path
         d="M 5,1 H 9 V 5.785156 H 5 Z m 0,0"
         id="path4794" />
    </clipPath>
    <clipPath
       id="clipPath5351">
      <path
         d="m 11,2 h 13 v 9.996094 H 11 Z m 0,0"
         id="path3802" />
    </clipPath>
    <clipPath
       id="clipPath3986">
      <path
         d="m 11,2 h 12 v 9.996094 H 11 Z m 0,0"
         id="path4762" />
    </clipPath>
    <clipPath
       id="clipPath330">
      <path
         d="m 11,2 h 13 v 9.996094 H 11 Z m 0,0"
         id="path3439" />
    </clipPath>
    <clipPath
       id="clipPath7507">
      <path
         d="m 11,2 h 13 v 9.996094 H 11 Z m 0,0"
         id="path703" />
    </clipPath>
  </defs>
  <g
     inkscape:label="Layer 1"
     inkscape:groupmode="layer"
     id="layer1"
     transform="translate(-15.584934,-75.665325)">
    <path
       style="fill:#ffd5d5;stroke:#000000;stroke-width:0.264583px;stroke-linecap:butt;stroke-linejoin:miter;stroke-opacity:1"
       d="M 35.599644,101.66828 82.5874,81.471217 118.4428,86.855042 65.363662,117.1348 161.88611,98.246765 146.29071,115.93834 172.949,145.5058 151.97557,131.43135 63.451647,154.32 135.05958,121.56921 33.874195,153.4152 106.57906,117.46782 21.578568,136.56471 Z"
       id="path245"
       sodipodi:nodetypes="cccccccccccccc" />
    <g
       inkscape:label=""
       transform="matrix(2,0,0,2,175.31422,143.79728)"
       id="g413">
      <g
         id="surface1"
         transform="matrix(0.352778,0,0,0.352778,-0.104731,0.0410104)">
        <g
           style="fill:#000000;fill-opacity:1"
           id="g23">
          <g
             id="use21"
             transform="translate(0,4.29)">
            <path
               style="stroke:none"
               d="m 4.671875,-3.703125 c 0,-0.546875 -0.265625,-0.703125 -0.4375,-0.703125 -0.25,0 -0.5,0.265625 -0.5,0.484375 0,0.125 0.046875,0.1875 0.15625,0.296875 0.21875,0.203125 0.34375,0.453125 0.34375,0.8125 0,0.421875 -0.609375,2.703125 -1.765625,2.703125 -0.515625,0 -0.75,-0.34375 -0.75,-0.875 0,-0.546875 0.28125,-1.28125 0.578125,-2.109375 0.078125,-0.171875 0.125,-0.3125 0.125,-0.5 0,-0.4375 -0.3125,-0.8125 -0.8125,-0.8125 -0.9375,0 -1.3125,1.453125 -1.3125,1.53125 0,0.109375 0.09375,0.109375 0.109375,0.109375 0.109375,0 0.109375,-0.03125 0.15625,-0.1875 0.296875,-1 0.71875,-1.234375 1.015625,-1.234375 0.078125,0 0.25,0 0.25,0.3125 0,0.25 -0.109375,0.53125 -0.171875,0.703125 -0.4375,1.15625 -0.5625,1.609375 -0.5625,2.046875 0,1.078125 0.875,1.234375 1.328125,1.234375 1.671875,0 2.25,-3.296875 2.25,-3.8125 z m 0,0"
               id="path36" />
          </g>
        </g>
        <g
           clip-path="url(#clipPath2258)"
           clip-rule="nonzero"
           id="g29">
          <g
             style="fill:#000000;fill-opacity:1"
             id="g27">
            <g
               id="use25"
               transform="translate(4.829,5.7839999)">
              <path
                 style="stroke:none"
                 d="m 2.328125,-4.4375 c 0,-0.1875 0,-0.1875 -0.203125,-0.1875 -0.453125,0.4375 -1.078125,0.4375 -1.359375,0.4375 v 0.25 c 0.15625,0 0.625,0 1,-0.1875 v 3.546875 c 0,0.234375 0,0.328125 -0.6875,0.328125 H 0.8125 V 0 c 0.125,0 0.984375,-0.03125 1.234375,-0.03125 0.21875,0 1.09375,0.03125 1.25,0.03125 V -0.25 H 3.03125 c -0.703125,0 -0.703125,-0.09375 -0.703125,-0.328125 z m 0,0"
                 id="path40" />
            </g>
          </g>
        </g>
      </g>
    </g>
    <g
       inkscape:label=""
       transform="matrix(2,0,0,2,149.85607,113.98367)"
       id="g476">
      <g
         id="g474"
         transform="matrix(0.352778,0,0,0.352778,-0.104731,0.0410104)">
        <g
           style="fill:#000000;fill-opacity:1"
           id="g464">
          <g
             id="g462"
             transform="translate(0,4.29)">
            <path
               style="stroke:none"
               d="m 4.671875,-3.703125 c 0,-0.546875 -0.265625,-0.703125 -0.4375,-0.703125 -0.25,0 -0.5,0.265625 -0.5,0.484375 0,0.125 0.046875,0.1875 0.15625,0.296875 0.21875,0.203125 0.34375,0.453125 0.34375,0.8125 0,0.421875 -0.609375,2.703125 -1.765625,2.703125 -0.515625,0 -0.75,-0.34375 -0.75,-0.875 0,-0.546875 0.28125,-1.28125 0.578125,-2.109375 0.078125,-0.171875 0.125,-0.3125 0.125,-0.5 0,-0.4375 -0.3125,-0.8125 -0.8125,-0.8125 -0.9375,0 -1.3125,1.453125 -1.3125,1.53125 0,0.109375 0.09375,0.109375 0.109375,0.109375 0.109375,0 0.109375,-0.03125 0.15625,-0.1875 0.296875,-1 0.71875,-1.234375 1.015625,-1.234375 0.078125,0 0.25,0 0.25,0.3125 0,0.25 -0.109375,0.53125 -0.171875,0.703125 -0.4375,1.15625 -0.5625,1.609375 -0.5625,2.046875 0,1.078125 0.875,1.234375 1.328125,1.234375 1.671875,0 2.25,-3.296875 2.25,-3.8125 z m 0,0"
               id="path460" />
          </g>
        </g>
        <g
           clip-path="url(#clipPath3378)"
           clip-rule="nonzero"
           id="g472">
          <g
             style="fill:#000000;fill-opacity:1"
             id="g470">
            <g
               id="g468"
               transform="translate(4.829,5.7839999)">
              <path
                 style="stroke:none"
                 d="M 3.515625,-1.265625 H 3.28125 c -0.015625,0.15625 -0.09375,0.5625 -0.1875,0.625 C 3.046875,-0.59375 2.515625,-0.59375 2.40625,-0.59375 H 1.125 c 0.734375,-0.640625 0.984375,-0.84375 1.390625,-1.171875 0.515625,-0.40625 1,-0.84375 1,-1.5 0,-0.84375 -0.734375,-1.359375 -1.625,-1.359375 -0.859375,0 -1.453125,0.609375 -1.453125,1.25 0,0.34375 0.296875,0.390625 0.375,0.390625 0.15625,0 0.359375,-0.125 0.359375,-0.375 0,-0.125 -0.046875,-0.375 -0.40625,-0.375 C 0.984375,-4.21875 1.453125,-4.375 1.78125,-4.375 c 0.703125,0 1.0625,0.546875 1.0625,1.109375 0,0.609375 -0.4375,1.078125 -0.65625,1.328125 L 0.515625,-0.265625 C 0.4375,-0.203125 0.4375,-0.1875 0.4375,0 h 2.875 z m 0,0"
                 id="path466" />
            </g>
          </g>
        </g>
      </g>
    </g>
    <g
       inkscape:label=""
       transform="matrix(2,0,0,2,164.21794,96.212287)"
       id="g561">
      <g
         id="g559"
         transform="matrix(0.352778,0,0,0.352778,-0.104731,0.0410104)">
        <g
           style="fill:#000000;fill-opacity:1"
           id="g549">
          <g
             id="g547"
             transform="translate(0,4.29)">
            <path
               style="stroke:none"
               d="m 4.671875,-3.703125 c 0,-0.546875 -0.265625,-0.703125 -0.4375,-0.703125 -0.25,0 -0.5,0.265625 -0.5,0.484375 0,0.125 0.046875,0.1875 0.15625,0.296875 0.21875,0.203125 0.34375,0.453125 0.34375,0.8125 0,0.421875 -0.609375,2.703125 -1.765625,2.703125 -0.515625,0 -0.75,-0.34375 -0.75,-0.875 0,-0.546875 0.28125,-1.28125 0.578125,-2.109375 0.078125,-0.171875 0.125,-0.3125 0.125,-0.5 0,-0.4375 -0.3125,-0.8125 -0.8125,-0.8125 -0.9375,0 -1.3125,1.453125 -1.3125,1.53125 0,0.109375 0.09375,0.109375 0.109375,0.109375 0.109375,0 0.109375,-0.03125 0.15625,-0.1875 0.296875,-1 0.71875,-1.234375 1.015625,-1.234375 0.078125,0 0.25,0 0.25,0.3125 0,0.25 -0.109375,0.53125 -0.171875,0.703125 -0.4375,1.15625 -0.5625,1.609375 -0.5625,2.046875 0,1.078125 0.875,1.234375 1.328125,1.234375 1.671875,0 2.25,-3.296875 2.25,-3.8125 z m 0,0"
               id="path545" />
          </g>
        </g>
        <g
           clip-path="url(#clipPath8637)"
           clip-rule="nonzero"
           id="g557">
          <g
             style="fill:#000000;fill-opacity:1"
             id="g555">
            <g
               id="g553"
               transform="translate(4.829,5.7839999)">
              <path
                 style="stroke:none"
                 d="m 1.90625,-2.328125 c 0.546875,0 0.9375,0.375 0.9375,1.125 0,0.859375 -0.515625,1.125 -0.90625,1.125 -0.28125,0 -0.90625,-0.078125 -1.1875,-0.5 0.328125,0 0.40625,-0.234375 0.40625,-0.390625 0,-0.21875 -0.171875,-0.375 -0.390625,-0.375 -0.1875,0 -0.390625,0.125 -0.390625,0.40625 0,0.65625 0.71875,1.078125 1.5625,1.078125 0.96875,0 1.640625,-0.65625 1.640625,-1.34375 0,-0.546875 -0.4375,-1.09375 -1.203125,-1.25 0.71875,-0.265625 0.984375,-0.78125 0.984375,-1.21875 0,-0.546875 -0.625,-0.953125 -1.40625,-0.953125 -0.765625,0 -1.359375,0.375 -1.359375,0.9375 0,0.234375 0.15625,0.359375 0.359375,0.359375 0.21875,0 0.359375,-0.15625 0.359375,-0.34375 0,-0.203125 -0.140625,-0.359375 -0.359375,-0.375 0.25,-0.296875 0.71875,-0.375 0.984375,-0.375 0.3125,0 0.75,0.15625 0.75,0.75 0,0.296875 -0.09375,0.625 -0.28125,0.828125 -0.21875,0.265625 -0.421875,0.28125 -0.765625,0.3125 -0.171875,0.015625 -0.1875,0.015625 -0.21875,0.015625 -0.015625,0 -0.078125,0.015625 -0.078125,0.09375 0,0.09375 0.0625,0.09375 0.1875,0.09375 z m 0,0"
                 id="path551" />
            </g>
          </g>
        </g>
      </g>
    </g>
    <g
       inkscape:label=""
       transform="matrix(2,0,0,2,57.502649,114.29484)"
       id="g668">
      <g
         id="g666"
         transform="matrix(0.352778,0,0,0.352778,-0.104731,0.0410104)">
        <g
           style="fill:#000000;fill-opacity:1"
           id="g656">
          <g
             id="g654"
             transform="translate(0,4.29)">
            <path
               style="stroke:none"
               d="m 4.671875,-3.703125 c 0,-0.546875 -0.265625,-0.703125 -0.4375,-0.703125 -0.25,0 -0.5,0.265625 -0.5,0.484375 0,0.125 0.046875,0.1875 0.15625,0.296875 0.21875,0.203125 0.34375,0.453125 0.34375,0.8125 0,0.421875 -0.609375,2.703125 -1.765625,2.703125 -0.515625,0 -0.75,-0.34375 -0.75,-0.875 0,-0.546875 0.28125,-1.28125 0.578125,-2.109375 0.078125,-0.171875 0.125,-0.3125 0.125,-0.5 0,-0.4375 -0.3125,-0.8125 -0.8125,-0.8125 -0.9375,0 -1.3125,1.453125 -1.3125,1.53125 0,0.109375 0.09375,0.109375 0.109375,0.109375 0.109375,0 0.109375,-0.03125 0.15625,-0.1875 0.296875,-1 0.71875,-1.234375 1.015625,-1.234375 0.078125,0 0.25,0 0.25,0.3125 0,0.25 -0.109375,0.53125 -0.171875,0.703125 -0.4375,1.15625 -0.5625,1.609375 -0.5625,2.046875 0,1.078125 0.875,1.234375 1.328125,1.234375 1.671875,0 2.25,-3.296875 2.25,-3.8125 z m 0,0"
               id="path652" />
          </g>
        </g>
        <g
           clip-path="url(#clipPath8548)"
           clip-rule="nonzero"
           id="g664">
          <g
             style="fill:#000000;fill-opacity:1"
             id="g662">
            <g
               id="g660"
               transform="translate(4.829,5.7839999)">
              <path
                 style="stroke:none"
                 d="m 3.6875,-1.140625 v -0.25 H 2.90625 V -4.5 c 0,-0.140625 0,-0.203125 -0.140625,-0.203125 -0.09375,0 -0.125,0 -0.1875,0.109375 l -2.3125,3.203125 v 0.25 h 2.0625 v 0.5625 c 0,0.25 0,0.328125 -0.578125,0.328125 H 1.5625 V 0 C 1.921875,-0.015625 2.359375,-0.03125 2.609375,-0.03125 2.875,-0.03125 3.3125,-0.015625 3.671875,0 v -0.25 h -0.1875 C 2.90625,-0.25 2.90625,-0.328125 2.90625,-0.578125 v -0.5625 z M 2.375,-3.9375 v 2.546875 H 0.53125 Z m 0,0"
                 id="path658" />
            </g>
          </g>
        </g>
      </g>
    </g>
    <g
       inkscape:label=""
       transform="matrix(2,0,0,2,119.32407,84.340063)"
       id="g797">
      <g
         id="g795"
         transform="matrix(0.352778,0,0,0.352778,-0.104731,0.0410104)">
        <g
           style="fill:#000000;fill-opacity:1"
           id="g785">
          <g
             id="g783"
             transform="translate(0,4.29)">
            <path
               style="stroke:none"
               d="m 4.671875,-3.703125 c 0,-0.546875 -0.265625,-0.703125 -0.4375,-0.703125 -0.25,0 -0.5,0.265625 -0.5,0.484375 0,0.125 0.046875,0.1875 0.15625,0.296875 0.21875,0.203125 0.34375,0.453125 0.34375,0.8125 0,0.421875 -0.609375,2.703125 -1.765625,2.703125 -0.515625,0 -0.75,-0.34375 -0.75,-0.875 0,-0.546875 0.28125,-1.28125 0.578125,-2.109375 0.078125,-0.171875 0.125,-0.3125 0.125,-0.5 0,-0.4375 -0.3125,-0.8125 -0.8125,-0.8125 -0.9375,0 -1.3125,1.453125 -1.3125,1.53125 0,0.109375 0.09375,0.109375 0.109375,0.109375 0.109375,0 0.109375,-0.03125 0.15625,-0.1875 0.296875,-1 0.71875,-1.234375 1.015625,-1.234375 0.078125,0 0.25,0 0.25,0.3125 0,0.25 -0.109375,0.53125 -0.171875,0.703125 -0.4375,1.15625 -0.5625,1.609375 -0.5625,2.046875 0,1.078125 0.875,1.234375 1.328125,1.234375 1.671875,0 2.25,-3.296875 2.25,-3.8125 z m 0,0"
               id="path781" />
          </g>
        </g>
        <g
           clip-path="url(#clipPath1352)"
           clip-rule="nonzero"
           id="g793">
          <g
             style="fill:#000000;fill-opacity:1"
             id="g791">
            <g
               id="g789"
               transform="translate(4.829,5.7839999)">
              <path
                 style="stroke:none"
                 d="m 1.078125,-3.890625 c 0.359375,0.09375 0.5625,0.09375 0.671875,0.09375 0.921875,0 1.46875,-0.625 1.46875,-0.734375 0,-0.078125 -0.046875,-0.09375 -0.078125,-0.09375 -0.015625,0 -0.03125,0 -0.0625,0.015625 -0.171875,0.0625 -0.53125,0.203125 -1.046875,0.203125 -0.203125,0 -0.5625,-0.015625 -1.015625,-0.1875 C 0.9375,-4.625 0.921875,-4.625 0.921875,-4.625 c -0.09375,0 -0.09375,0.078125 -0.09375,0.1875 v 2.046875 c 0,0.125 0,0.203125 0.109375,0.203125 0.0625,0 0.078125,0 0.140625,-0.09375 0.296875,-0.375 0.734375,-0.4375 0.96875,-0.4375 0.421875,0 0.609375,0.328125 0.640625,0.390625 0.125,0.234375 0.171875,0.5 0.171875,0.90625 0,0.203125 0,0.609375 -0.21875,0.921875 -0.171875,0.25 -0.46875,0.421875 -0.8125,0.421875 -0.453125,0 -0.921875,-0.25 -1.09375,-0.71875 0.265625,0.015625 0.40625,-0.15625 0.40625,-0.34375 0,-0.296875 -0.265625,-0.34375 -0.359375,-0.34375 0,0 -0.34375,0 -0.34375,0.375 0,0.625 0.578125,1.25 1.40625,1.25 0.890625,0 1.671875,-0.65625 1.671875,-1.546875 0,-0.78125 -0.59375,-1.5 -1.453125,-1.5 -0.3125,0 -0.671875,0.0625 -0.984375,0.328125 z m 0,0"
                 id="path787" />
            </g>
          </g>
        </g>
      </g>
    </g>
    <g
       inkscape:label=""
       transform="matrix(2,0,0,2,81.076668,75.665325)"
       id="g948">
      <g
         id="g946"
         transform="matrix(0.352778,0,0,0.352778,-0.104731,0.0410104)">
        <g
           style="fill:#000000;fill-opacity:1"
           id="g936">
          <g
             id="g934"
             transform="translate(0,4.29)">
            <path
               style="stroke:none"
               d="m 4.671875,-3.703125 c 0,-0.546875 -0.265625,-0.703125 -0.4375,-0.703125 -0.25,0 -0.5,0.265625 -0.5,0.484375 0,0.125 0.046875,0.1875 0.15625,0.296875 0.21875,0.203125 0.34375,0.453125 0.34375,0.8125 0,0.421875 -0.609375,2.703125 -1.765625,2.703125 -0.515625,0 -0.75,-0.34375 -0.75,-0.875 0,-0.546875 0.28125,-1.28125 0.578125,-2.109375 0.078125,-0.171875 0.125,-0.3125 0.125,-0.5 0,-0.4375 -0.3125,-0.8125 -0.8125,-0.8125 -0.9375,0 -1.3125,1.453125 -1.3125,1.53125 0,0.109375 0.09375,0.109375 0.109375,0.109375 0.109375,0 0.109375,-0.03125 0.15625,-0.1875 0.296875,-1 0.71875,-1.234375 1.015625,-1.234375 0.078125,0 0.25,0 0.25,0.3125 0,0.25 -0.109375,0.53125 -0.171875,0.703125 -0.4375,1.15625 -0.5625,1.609375 -0.5625,2.046875 0,1.078125 0.875,1.234375 1.328125,1.234375 1.671875,0 2.25,-3.296875 2.25,-3.8125 z m 0,0"
               id="path932" />
          </g>
        </g>
        <g
           clip-path="url(#clipPath8863)"
           clip-rule="nonzero"
           id="g944">
          <g
             style="fill:#000000;fill-opacity:1"
             id="g942">
            <g
               id="g940"
               transform="translate(4.829,5.7839999)">
              <path
                 style="stroke:none"
                 d="m 1.046875,-2.28125 c 0,-0.5625 0.046875,-1.078125 0.3125,-1.515625 0.234375,-0.375 0.609375,-0.625 1.0625,-0.625 0.203125,0 0.484375,0.046875 0.625,0.234375 C 2.875,-4.171875 2.71875,-4.046875 2.71875,-3.84375 c 0,0.171875 0.125,0.328125 0.328125,0.328125 0.21875,0 0.34375,-0.140625 0.34375,-0.34375 0,-0.40625 -0.296875,-0.765625 -0.984375,-0.765625 -1,0 -2.03125,0.921875 -2.03125,2.421875 0,1.796875 0.84375,2.34375 1.625,2.34375 0.84375,0 1.578125,-0.65625 1.578125,-1.5625 0,-0.890625 -0.703125,-1.546875 -1.515625,-1.546875 -0.5625,0 -0.859375,0.375 -1.015625,0.6875 z M 2,-0.078125 c -0.359375,0 -0.625,-0.203125 -0.78125,-0.515625 C 1.125,-0.796875 1.0625,-1.15625 1.0625,-1.5625 c 0,-0.6875 0.40625,-1.203125 0.96875,-1.203125 0.3125,0 0.53125,0.125 0.703125,0.375 0.171875,0.265625 0.171875,0.5625 0.171875,0.96875 0,0.390625 0,0.6875 -0.1875,0.96875 -0.15625,0.234375 -0.390625,0.375 -0.71875,0.375 z m 0,0"
                 id="path938" />
            </g>
          </g>
        </g>
      </g>
    </g>
    <g
       inkscape:label=""
       transform="matrix(2,0,0,2,29.273768,95.709381)"
       id="g1121">
      <g
         id="g1119"
         transform="matrix(0.352778,0,0,0.352778,-0.104731,0.0410104)">
        <g
           style="fill:#000000;fill-opacity:1"
           id="g1109">
          <g
             id="g1107"
             transform="translate(0,4.29)">
            <path
               style="stroke:none"
               d="m 4.671875,-3.703125 c 0,-0.546875 -0.265625,-0.703125 -0.4375,-0.703125 -0.25,0 -0.5,0.265625 -0.5,0.484375 0,0.125 0.046875,0.1875 0.15625,0.296875 0.21875,0.203125 0.34375,0.453125 0.34375,0.8125 0,0.421875 -0.609375,2.703125 -1.765625,2.703125 -0.515625,0 -0.75,-0.34375 -0.75,-0.875 0,-0.546875 0.28125,-1.28125 0.578125,-2.109375 0.078125,-0.171875 0.125,-0.3125 0.125,-0.5 0,-0.4375 -0.3125,-0.8125 -0.8125,-0.8125 -0.9375,0 -1.3125,1.453125 -1.3125,1.53125 0,0.109375 0.09375,0.109375 0.109375,0.109375 0.109375,0 0.109375,-0.03125 0.15625,-0.1875 0.296875,-1 0.71875,-1.234375 1.015625,-1.234375 0.078125,0 0.25,0 0.25,0.3125 0,0.25 -0.109375,0.53125 -0.171875,0.703125 -0.4375,1.15625 -0.5625,1.609375 -0.5625,2.046875 0,1.078125 0.875,1.234375 1.328125,1.234375 1.671875,0 2.25,-3.296875 2.25,-3.8125 z m 0,0"
               id="path1105" />
          </g>
        </g>
        <g
           clip-path="url(#clipPath1933)"
           clip-rule="nonzero"
           id="g1117">
          <g
             style="fill:#000000;fill-opacity:1"
             id="g1115">
            <g
               id="g1113"
               transform="translate(4.829,5.7839999)">
              <path
                 style="stroke:none"
                 d="m 3.734375,-4.203125 c 0.0625,-0.09375 0.0625,-0.109375 0.0625,-0.28125 H 1.96875 C 1.6875,-4.484375 1.609375,-4.5 1.359375,-4.515625 1,-4.546875 0.984375,-4.59375 0.96875,-4.703125 H 0.734375 l -0.25,1.484375 H 0.71875 c 0.015625,-0.109375 0.09375,-0.5625 0.203125,-0.640625 0.046875,-0.03125 0.625,-0.03125 0.71875,-0.03125 H 3.15625 c -0.21875,0.28125 -0.578125,0.71875 -0.71875,0.921875 -0.90625,1.1875 -1,2.296875 -1,2.703125 0,0.078125 0,0.40625 0.328125,0.40625 0.34375,0 0.34375,-0.3125 0.34375,-0.40625 v -0.28125 c 0,-1.34375 0.28125,-1.96875 0.578125,-2.34375 z m 0,0"
                 id="path1111" />
            </g>
          </g>
        </g>
      </g>
    </g>
    <g
       inkscape:label=""
       transform="matrix(2,0,0,2,15.584934,138.22415)"
       id="g1316">
      <g
         id="g1314"
         transform="matrix(0.352778,0,0,0.352778,-0.104731,0.0410104)">
        <g
           style="fill:#000000;fill-opacity:1"
           id="g1304">
          <g
             id="g1302"
             transform="translate(0,4.29)">
            <path
               style="stroke:none"
               d="m 4.671875,-3.703125 c 0,-0.546875 -0.265625,-0.703125 -0.4375,-0.703125 -0.25,0 -0.5,0.265625 -0.5,0.484375 0,0.125 0.046875,0.1875 0.15625,0.296875 0.21875,0.203125 0.34375,0.453125 0.34375,0.8125 0,0.421875 -0.609375,2.703125 -1.765625,2.703125 -0.515625,0 -0.75,-0.34375 -0.75,-0.875 0,-0.546875 0.28125,-1.28125 0.578125,-2.109375 0.078125,-0.171875 0.125,-0.3125 0.125,-0.5 0,-0.4375 -0.3125,-0.8125 -0.8125,-0.8125 -0.9375,0 -1.3125,1.453125 -1.3125,1.53125 0,0.109375 0.09375,0.109375 0.109375,0.109375 0.109375,0 0.109375,-0.03125 0.15625,-0.1875 0.296875,-1 0.71875,-1.234375 1.015625,-1.234375 0.078125,0 0.25,0 0.25,0.3125 0,0.25 -0.109375,0.53125 -0.171875,0.703125 -0.4375,1.15625 -0.5625,1.609375 -0.5625,2.046875 0,1.078125 0.875,1.234375 1.328125,1.234375 1.671875,0 2.25,-3.296875 2.25,-3.8125 z m 0,0"
               id="path1300" />
          </g>
        </g>
        <g
           clip-path="url(#clipPath3637)"
           clip-rule="nonzero"
           id="g1312">
          <g
             style="fill:#000000;fill-opacity:1"
             id="g1310">
            <g
               id="g1308"
               transform="translate(4.829,5.7839999)">
              <path
                 style="stroke:none"
                 d="m 2.46875,-2.515625 c 0.546875,-0.265625 0.890625,-0.59375 0.890625,-1.078125 0,-0.671875 -0.703125,-1.03125 -1.375,-1.03125 -0.765625,0 -1.390625,0.5 -1.390625,1.15625 0,0.328125 0.15625,0.5625 0.28125,0.703125 0.125,0.15625 0.171875,0.1875 0.578125,0.421875 C 1.0625,-2.171875 0.375,-1.796875 0.375,-1.0625 c 0,0.765625 0.796875,1.203125 1.59375,1.203125 0.890625,0 1.609375,-0.5625 1.609375,-1.3125 0,-0.46875 -0.265625,-0.859375 -0.671875,-1.09375 -0.09375,-0.0625 -0.328125,-0.1875 -0.4375,-0.25 z m -1.125,-0.65625 c -0.1875,-0.109375 -0.375,-0.296875 -0.375,-0.5625 0,-0.4375 0.5,-0.6875 1,-0.6875 0.546875,0 1.03125,0.34375 1.03125,0.828125 0,0.625 -0.734375,0.9375 -0.734375,0.9375 -0.015625,0 -0.03125,0 -0.078125,-0.03125 z m 0.328125,0.96875 0.96875,0.546875 c 0.171875,0.109375 0.515625,0.3125 0.515625,0.71875 0,0.53125 -0.578125,0.859375 -1.171875,0.859375 -0.640625,0 -1.1875,-0.421875 -1.1875,-0.984375 0,-0.515625 0.375,-0.921875 0.875,-1.140625 z m 0,0"
                 id="path1306" />
            </g>
          </g>
        </g>
      </g>
    </g>
    <g
       inkscape:label=""
       transform="matrix(2,0,0,2,108.92334,114.27633)"
       id="g1533">
      <g
         id="g1531"
         transform="matrix(0.352778,0,0,0.352778,-0.104731,0.0410104)">
        <g
           style="fill:#000000;fill-opacity:1"
           id="g1521">
          <g
             id="g1519"
             transform="translate(0,4.29)">
            <path
               style="stroke:none"
               d="m 4.671875,-3.703125 c 0,-0.546875 -0.265625,-0.703125 -0.4375,-0.703125 -0.25,0 -0.5,0.265625 -0.5,0.484375 0,0.125 0.046875,0.1875 0.15625,0.296875 0.21875,0.203125 0.34375,0.453125 0.34375,0.8125 0,0.421875 -0.609375,2.703125 -1.765625,2.703125 -0.515625,0 -0.75,-0.34375 -0.75,-0.875 0,-0.546875 0.28125,-1.28125 0.578125,-2.109375 0.078125,-0.171875 0.125,-0.3125 0.125,-0.5 0,-0.4375 -0.3125,-0.8125 -0.8125,-0.8125 -0.9375,0 -1.3125,1.453125 -1.3125,1.53125 0,0.109375 0.09375,0.109375 0.109375,0.109375 0.109375,0 0.109375,-0.03125 0.15625,-0.1875 0.296875,-1 0.71875,-1.234375 1.015625,-1.234375 0.078125,0 0.25,0 0.25,0.3125 0,0.25 -0.109375,0.53125 -0.171875,0.703125 -0.4375,1.15625 -0.5625,1.609375 -0.5625,2.046875 0,1.078125 0.875,1.234375 1.328125,1.234375 1.671875,0 2.25,-3.296875 2.25,-3.8125 z m 0,0"
               id="path1517" />
          </g>
        </g>
        <g
           clip-path="url(#clipPath7638)"
           clip-rule="nonzero"
           id="g1529">
          <g
             style="fill:#000000;fill-opacity:1"
             id="g1527">
            <g
               id="g1525"
               transform="translate(4.829,5.7839999)">
              <path
                 style="stroke:none"
                 d="m 2.90625,-2.078125 c 0,1.734375 -0.84375,2 -1.265625,2 -0.15625,0 -0.53125,-0.015625 -0.71875,-0.234375 0.296875,-0.03125 0.3125,-0.265625 0.3125,-0.328125 0,-0.171875 -0.125,-0.328125 -0.328125,-0.328125 -0.203125,0 -0.328125,0.140625 -0.328125,0.34375 0,0.46875 0.390625,0.765625 1.0625,0.765625 1,0 1.9375,-0.9375 1.9375,-2.4375 C 3.578125,-4.015625 2.8125,-4.625 2,-4.625 c -0.234375,0 -0.703125,0.03125 -1.109375,0.421875 -0.234375,0.234375 -0.515625,0.5 -0.515625,1.125 0,0.890625 0.703125,1.546875 1.515625,1.546875 0.5625,0 0.859375,-0.375 1.015625,-0.6875 z m -0.96875,0.34375 c -0.28125,0 -0.53125,-0.078125 -0.734375,-0.40625 -0.15625,-0.25 -0.15625,-0.546875 -0.15625,-0.9375 0,-0.40625 0,-0.671875 0.203125,-0.953125 0.171875,-0.25 0.390625,-0.390625 0.75,-0.390625 0.359375,0 0.578125,0.21875 0.6875,0.40625 0.1875,0.28125 0.203125,0.78125 0.203125,1.015625 0,0.90625 -0.515625,1.265625 -0.953125,1.265625 z m 0,0"
                 id="path1523" />
            </g>
          </g>
        </g>
      </g>
    </g>
    <g
       inkscape:label=""
       transform="translate(31.276135,155.74892)"
       id="g2674">
      <g
         id="g2672"
         transform="matrix(0.352778,0,0,0.352778,-0.198437,0.0749211)">
        <g
           style="fill:#000000;fill-opacity:1"
           id="g26">
          <g
             id="use24"
             transform="translate(0,8.8970003)">
            <path
               style="stroke:none"
               d="m 9.4375,-7.71875 c 0,-1.3125 -0.65625,-1.390625 -0.828125,-1.390625 -0.484375,0 -0.953125,0.5 -0.953125,0.90625 0,0.25 0.15625,0.390625 0.234375,0.484375 0.203125,0.171875 0.75,0.734375 0.75,1.8125 0,0.859375 -1.25,5.703125 -3.71875,5.703125 -1.265625,0 -1.515625,-1.0625 -1.515625,-1.828125 0,-1.03125 0.484375,-2.46875 1.03125,-3.953125 0.328125,-0.859375 0.421875,-1.0625 0.421875,-1.46875 0,-0.875 -0.625,-1.65625 -1.640625,-1.65625 -1.890625,0 -2.65625,3 -2.65625,3.15625 0,0.09375 0.078125,0.1875 0.21875,0.1875 0.1875,0 0.203125,-0.078125 0.296875,-0.375 0.484375,-1.765625 1.296875,-2.5625 2.078125,-2.5625 0.1875,0 0.546875,0 0.546875,0.6875 0,0.53125 -0.234375,1.140625 -0.546875,1.921875 -0.984375,2.640625 -0.984375,3.28125 -0.984375,3.78125 0,0.453125 0.0625,1.296875 0.703125,1.875 0.734375,0.640625 1.765625,0.640625 1.953125,0.640625 3.4375,0 4.609375,-6.75 4.609375,-7.921875 z m 0,0"
               id="path41" />
          </g>
        </g>
        <g
           clip-path="url(#clipPath5351)"
           clip-rule="nonzero"
           id="g34">
          <g
             style="fill:#000000;fill-opacity:1"
             id="g32">
            <g
               id="use28"
               transform="translate(9.7810001,11.996)">
              <path
                 style="stroke:none"
                 d="m 4.125,-9.1875 c 0,-0.34375 0,-0.34375 -0.28125,-0.34375 C 3.5,-9.15625 2.78125,-8.625 1.3125,-8.625 v 0.421875 c 0.328125,0 1.046875,0 1.828125,-0.375 v 7.46875 c 0,0.515625 -0.046875,0.6875 -1.296875,0.6875 H 1.390625 V 0 c 0.390625,-0.03125 1.78125,-0.03125 2.25,-0.03125 0.46875,0 1.859375,0 2.234375,0.03125 V -0.421875 H 5.4375 c -1.265625,0 -1.3125,-0.171875 -1.3125,-0.6875 z m 0,0"
                 id="path45" />
            </g>
            <g
               id="use30"
               transform="translate(16.804899,11.996)">
              <path
                 style="stroke:none"
                 d="m 6.421875,-4.59375 c 0,-1.1875 -0.0625,-2.34375 -0.578125,-3.4375 -0.59375,-1.1875 -1.625,-1.5 -2.328125,-1.5 -0.828125,0 -1.859375,0.40625 -2.375,1.59375 -0.40625,0.90625 -0.546875,1.796875 -0.546875,3.34375 0,1.390625 0.09375,2.4375 0.609375,3.453125 0.5625,1.09375 1.546875,1.4375 2.296875,1.4375 1.25,0 1.96875,-0.734375 2.375,-1.578125 0.515625,-1.078125 0.546875,-2.484375 0.546875,-3.3125 z M 3.5,0.015625 C 3.046875,0.015625 2.109375,-0.25 1.84375,-1.8125 1.671875,-2.671875 1.671875,-3.765625 1.671875,-4.765625 1.671875,-5.9375 1.671875,-7 1.90625,-7.84375 2.15625,-8.8125 2.890625,-9.25 3.5,-9.25 c 0.546875,0 1.375,0.328125 1.65625,1.5625 0.171875,0.8125 0.171875,1.953125 0.171875,2.921875 0,0.96875 0,2.046875 -0.15625,2.921875 C 4.90625,-0.265625 4,0.015625 3.5,0.015625 Z m 0,0"
                 id="path49" />
            </g>
          </g>
        </g>
      </g>
    </g>
    <g
       inkscape:label=""
       transform="translate(133.45852,115.50041)"
       id="g2940">
      <g
         id="g2938"
         transform="matrix(0.352778,0,0,0.352778,-0.198437,0.0749211)">
        <g
           style="fill:#000000;fill-opacity:1"
           id="g2928">
          <g
             id="g2926"
             transform="translate(0,8.8970003)">
            <path
               style="stroke:none"
               d="m 9.4375,-7.71875 c 0,-1.3125 -0.65625,-1.390625 -0.828125,-1.390625 -0.484375,0 -0.953125,0.5 -0.953125,0.90625 0,0.25 0.15625,0.390625 0.234375,0.484375 0.203125,0.171875 0.75,0.734375 0.75,1.8125 0,0.859375 -1.25,5.703125 -3.71875,5.703125 -1.265625,0 -1.515625,-1.0625 -1.515625,-1.828125 0,-1.03125 0.484375,-2.46875 1.03125,-3.953125 0.328125,-0.859375 0.421875,-1.0625 0.421875,-1.46875 0,-0.875 -0.625,-1.65625 -1.640625,-1.65625 -1.890625,0 -2.65625,3 -2.65625,3.15625 0,0.09375 0.078125,0.1875 0.21875,0.1875 0.1875,0 0.203125,-0.078125 0.296875,-0.375 0.484375,-1.765625 1.296875,-2.5625 2.078125,-2.5625 0.1875,0 0.546875,0 0.546875,0.6875 0,0.53125 -0.234375,1.140625 -0.546875,1.921875 -0.984375,2.640625 -0.984375,3.28125 -0.984375,3.78125 0,0.453125 0.0625,1.296875 0.703125,1.875 0.734375,0.640625 1.765625,0.640625 1.953125,0.640625 3.4375,0 4.609375,-6.75 4.609375,-7.921875 z m 0,0"
               id="path38" />
          </g>
        </g>
        <g
           clip-path="url(#clipPath3986)"
           clip-rule="nonzero"
           id="g31">
          <g
             style="fill:#000000;fill-opacity:1"
             id="g2935">
            <g
               id="g2931"
               transform="translate(9.7810001,11.996)">
              <path
                 style="stroke:none"
                 d="m 4.125,-9.1875 c 0,-0.34375 0,-0.34375 -0.28125,-0.34375 C 3.5,-9.15625 2.78125,-8.625 1.3125,-8.625 v 0.421875 c 0.328125,0 1.046875,0 1.828125,-0.375 v 7.46875 c 0,0.515625 -0.046875,0.6875 -1.296875,0.6875 H 1.390625 V 0 c 0.390625,-0.03125 1.78125,-0.03125 2.25,-0.03125 0.46875,0 1.859375,0 2.234375,0.03125 V -0.421875 H 5.4375 c -1.265625,0 -1.3125,-0.171875 -1.3125,-0.6875 z m 0,0"
                 id="path42" />
            </g>
            <g
               id="use27"
               transform="translate(16.804899,11.996)">
              <path
                 style="stroke:none"
                 d="m 4.125,-9.1875 c 0,-0.34375 0,-0.34375 -0.28125,-0.34375 C 3.5,-9.15625 2.78125,-8.625 1.3125,-8.625 v 0.421875 c 0.328125,0 1.046875,0 1.828125,-0.375 v 7.46875 c 0,0.515625 -0.046875,0.6875 -1.296875,0.6875 H 1.390625 V 0 c 0.390625,-0.03125 1.78125,-0.03125 2.25,-0.03125 0.46875,0 1.859375,0 2.234375,0.03125 V -0.421875 H 5.4375 c -1.265625,0 -1.3125,-0.171875 -1.3125,-0.6875 z m 0,0"
                 id="path46" />
            </g>
          </g>
        </g>
      </g>
    </g>
    <g
       inkscape:label=""
       transform="translate(60.443763,156.86779)"
       id="g3237">
      <g
         id="g3235"
         transform="matrix(0.352778,0,0,0.352778,-0.198437,0.0749211)">
        <g
           style="fill:#000000;fill-opacity:1"
           id="g3221">
          <g
             id="g3219"
             transform="translate(0,8.8970003)">
            <path
               style="stroke:none"
               d="m 9.4375,-7.71875 c 0,-1.3125 -0.65625,-1.390625 -0.828125,-1.390625 -0.484375,0 -0.953125,0.5 -0.953125,0.90625 0,0.25 0.15625,0.390625 0.234375,0.484375 0.203125,0.171875 0.75,0.734375 0.75,1.8125 0,0.859375 -1.25,5.703125 -3.71875,5.703125 -1.265625,0 -1.515625,-1.0625 -1.515625,-1.828125 0,-1.03125 0.484375,-2.46875 1.03125,-3.953125 0.328125,-0.859375 0.421875,-1.0625 0.421875,-1.46875 0,-0.875 -0.625,-1.65625 -1.640625,-1.65625 -1.890625,0 -2.65625,3 -2.65625,3.15625 0,0.09375 0.078125,0.1875 0.21875,0.1875 0.1875,0 0.203125,-0.078125 0.296875,-0.375 0.484375,-1.765625 1.296875,-2.5625 2.078125,-2.5625 0.1875,0 0.546875,0 0.546875,0.6875 0,0.53125 -0.234375,1.140625 -0.546875,1.921875 -0.984375,2.640625 -0.984375,3.28125 -0.984375,3.78125 0,0.453125 0.0625,1.296875 0.703125,1.875 0.734375,0.640625 1.765625,0.640625 1.953125,0.640625 3.4375,0 4.609375,-6.75 4.609375,-7.921875 z m 0,0"
               id="path3217" />
          </g>
        </g>
        <g
           clip-path="url(#clipPath330)"
           clip-rule="nonzero"
           id="g3233">
          <g
             style="fill:#000000;fill-opacity:1"
             id="g3231">
            <g
               id="g3225"
               transform="translate(9.7810001,11.996)">
              <path
                 style="stroke:none"
                 d="m 4.125,-9.1875 c 0,-0.34375 0,-0.34375 -0.28125,-0.34375 C 3.5,-9.15625 2.78125,-8.625 1.3125,-8.625 v 0.421875 c 0.328125,0 1.046875,0 1.828125,-0.375 v 7.46875 c 0,0.515625 -0.046875,0.6875 -1.296875,0.6875 H 1.390625 V 0 c 0.390625,-0.03125 1.78125,-0.03125 2.25,-0.03125 0.46875,0 1.859375,0 2.234375,0.03125 V -0.421875 H 5.4375 c -1.265625,0 -1.3125,-0.171875 -1.3125,-0.6875 z m 0,0"
                 id="path3223" />
            </g>
            <g
               id="g3229"
               transform="translate(16.804899,11.996)">
              <path
                 style="stroke:none"
                 d="M 6.3125,-2.40625 H 6 c -0.046875,0.234375 -0.15625,1.03125 -0.3125,1.265625 -0.09375,0.125 -0.90625,0.125 -1.34375,0.125 H 1.6875 c 0.390625,-0.328125 1.265625,-1.25 1.640625,-1.59375 2.1875,-2.015625 2.984375,-2.75 2.984375,-4.171875 0,-1.65625 -1.3125,-2.75 -2.96875,-2.75 -1.671875,0 -2.640625,1.40625 -2.640625,2.640625 0,0.734375 0.625,0.734375 0.671875,0.734375 0.296875,0 0.671875,-0.21875 0.671875,-0.671875 C 2.046875,-7.234375 1.78125,-7.5 1.375,-7.5 1.25,-7.5 1.21875,-7.5 1.171875,-7.484375 1.453125,-8.46875 2.21875,-9.125 3.15625,-9.125 4.375,-9.125 5.125,-8.109375 5.125,-6.78125 5.125,-5.5625 4.421875,-4.5 3.59375,-3.578125 L 0.703125,-0.34375 V 0 H 5.9375 Z m 0,0"
                 id="path3227" />
            </g>
          </g>
        </g>
      </g>
    </g>
    <g
       inkscape:label=""
       transform="translate(146.98336,133.49082)"
       id="g3560">
      <g
         id="g3558"
         transform="matrix(0.352778,0,0,0.352778,-0.198437,0.0749211)">
        <g
           style="fill:#000000;fill-opacity:1"
           id="g3544">
          <g
             id="g3542"
             transform="translate(0,8.8970003)">
            <path
               style="stroke:none"
               d="m 9.4375,-7.71875 c 0,-1.3125 -0.65625,-1.390625 -0.828125,-1.390625 -0.484375,0 -0.953125,0.5 -0.953125,0.90625 0,0.25 0.15625,0.390625 0.234375,0.484375 0.203125,0.171875 0.75,0.734375 0.75,1.8125 0,0.859375 -1.25,5.703125 -3.71875,5.703125 -1.265625,0 -1.515625,-1.0625 -1.515625,-1.828125 0,-1.03125 0.484375,-2.46875 1.03125,-3.953125 0.328125,-0.859375 0.421875,-1.0625 0.421875,-1.46875 0,-0.875 -0.625,-1.65625 -1.640625,-1.65625 -1.890625,0 -2.65625,3 -2.65625,3.15625 0,0.09375 0.078125,0.1875 0.21875,0.1875 0.1875,0 0.203125,-0.078125 0.296875,-0.375 0.484375,-1.765625 1.296875,-2.5625 2.078125,-2.5625 0.1875,0 0.546875,0 0.546875,0.6875 0,0.53125 -0.234375,1.140625 -0.546875,1.921875 -0.984375,2.640625 -0.984375,3.28125 -0.984375,3.78125 0,0.453125 0.0625,1.296875 0.703125,1.875 0.734375,0.640625 1.765625,0.640625 1.953125,0.640625 3.4375,0 4.609375,-6.75 4.609375,-7.921875 z m 0,0"
               id="path3540" />
          </g>
        </g>
        <g
           clip-path="url(#clipPath7507)"
           clip-rule="nonzero"
           id="g3556">
          <g
             style="fill:#000000;fill-opacity:1"
             id="g3554">
            <g
               id="g3548"
               transform="translate(9.7810001,11.996)">
              <path
                 style="stroke:none"
                 d="m 4.125,-9.1875 c 0,-0.34375 0,-0.34375 -0.28125,-0.34375 C 3.5,-9.15625 2.78125,-8.625 1.3125,-8.625 v 0.421875 c 0.328125,0 1.046875,0 1.828125,-0.375 v 7.46875 c 0,0.515625 -0.046875,0.6875 -1.296875,0.6875 H 1.390625 V 0 c 0.390625,-0.03125 1.78125,-0.03125 2.25,-0.03125 0.46875,0 1.859375,0 2.234375,0.03125 V -0.421875 H 5.4375 c -1.265625,0 -1.3125,-0.171875 -1.3125,-0.6875 z m 0,0"
                 id="path3546" />
            </g>
            <g
               id="g3552"
               transform="translate(16.804899,11.996)">
              <path
                 style="stroke:none"
                 d="m 2.640625,-5.15625 c -0.25,0.015625 -0.296875,0.03125 -0.296875,0.171875 0,0.140625 0.0625,0.140625 0.328125,0.140625 h 0.65625 c 1.21875,0 1.765625,1 1.765625,2.375 0,1.875 -0.984375,2.375 -1.6875,2.375 -0.6875,0 -1.859375,-0.328125 -2.265625,-1.265625 0.453125,0.0625 0.875,-0.1875 0.875,-0.703125 0,-0.421875 -0.3125,-0.703125 -0.703125,-0.703125 -0.34375,0 -0.71875,0.203125 -0.71875,0.75 0,1.265625 1.265625,2.3125 2.859375,2.3125 1.703125,0 2.96875,-1.296875 2.96875,-2.75 0,-1.3125 -1.0625,-2.359375 -2.4375,-2.59375 1.25,-0.359375 2.046875,-1.40625 2.046875,-2.53125 0,-1.125 -1.171875,-1.953125 -2.5625,-1.953125 -1.4375,0 -2.5,0.875 -2.5,1.921875 0,0.5625 0.453125,0.6875 0.671875,0.6875 0.296875,0 0.640625,-0.21875 0.640625,-0.65625 0,-0.453125 -0.34375,-0.65625 -0.65625,-0.65625 -0.09375,0 -0.125,0 -0.15625,0.015625 0.546875,-0.96875 1.890625,-0.96875 1.953125,-0.96875 0.484375,0 1.40625,0.203125 1.40625,1.609375 0,0.28125 -0.03125,1.078125 -0.453125,1.703125 -0.4375,0.625 -0.921875,0.671875 -1.3125,0.6875 z m 0,0"
                 id="path3550" />
            </g>
          </g>
        </g>
      </g>
    </g>
    <circle
       style="fill:#ff8080;stroke:#000000;stroke-width:0.4;stroke-linecap:round;stroke-linejoin:round"
       id="path3629"
       cx="35.726997"
       cy="101.81248"
       r="1.305723" />
    <circle
       style="fill:#ff8080;stroke:#000000;stroke-width:0.4;stroke-linecap:round;stroke-linejoin:round"
       id="circle3683"
       cx="21.578568"
       cy="136.56471"
       r="1.305723" />
    <circle
       style="fill:#ff8080;stroke:#000000;stroke-width:0.4;stroke-linecap:round;stroke-linejoin:round"
       id="circle3685"
       cx="65.363663"
       cy="117.1348"
       r="1.305723" />
    <circle
       style="fill:#ff8080;stroke:#000000;stroke-width:0.4;stroke-linecap:round;stroke-linejoin:round"
       id="circle3687"
       cx="117.13708"
       cy="86.855042"
       r="1.305723" />
    <circle
       style="fill:#ff8080;stroke:#000000;stroke-width:0.4;stroke-linecap:round;stroke-linejoin:round"
       id="circle3689"
       cx="82.587402"
       cy="81.471214"
       r="1.305723" />
    <circle
       style="fill:#ff8080;stroke:#000000;stroke-width:0.4;stroke-linecap:round;stroke-linejoin:round"
       id="circle3691"
       cx="106.57906"
       cy="117.46782"
       r="1.305723" />
    <circle
       style="fill:#ff8080;stroke:#000000;stroke-width:0.4;stroke-linecap:round;stroke-linejoin:round"
       id="circle3693"
       cx="33.874195"
       cy="153.41521"
       r="1.305723" />
    <circle
       style="fill:#ff8080;stroke:#000000;stroke-width:0.4;stroke-linecap:round;stroke-linejoin:round"
       id="circle3695"
       cx="63.451649"
       cy="154.32001"
       r="1.305723" />
    <circle
       style="fill:#ff8080;stroke:#000000;stroke-width:0.4;stroke-linecap:round;stroke-linejoin:round"
       id="circle3697"
       cx="135.76811"
       cy="121.0395"
       r="1.305723" />
    <circle
       style="fill:#ff8080;stroke:#000000;stroke-width:0.4;stroke-linecap:round;stroke-linejoin:round"
       id="circle3699"
       cx="151.92839"
       cy="131.36942"
       r="1.305723" />
    <circle
       style="fill:#ff8080;stroke:#000000;stroke-width:0.4;stroke-linecap:round;stroke-linejoin:round"
       id="circle3701"
       cx="172.94901"
       cy="145.5058"
       r="1.305723" />
    <circle
       style="fill:#ff8080;stroke:#000000;stroke-width:0.4;stroke-linecap:round;stroke-linejoin:round"
       id="circle3703"
       cx="146.29071"
       cy="115.93834"
       r="1.305723" />
    <circle
       style="fill:#ff8080;stroke:#000000;stroke-width:0.4;stroke-linecap:round;stroke-linejoin:round"
       id="circle3705"
       cx="161.88611"
       cy="98.246765"
       r="1.305723" />
  </g>
</svg>
